<svg xmlns="http://www.w3.org/2000/svg" width="1280" height="420" viewBox="0 0 1280 420">
  <defs>
    <linearGradient id="bg" x1="0" y1="0" x2="1" y2="1">
      <stop offset="0" stop-color="#0b1220"/>
      <stop offset="0.55" stop-color="#0f2b1d"/>
      <stop offset="1" stop-color="#14532d"/>
    </linearGradient>
    <radialGradient id="glow" cx="0.5" cy="0.5" r="0.5">
      <stop offset="0" stop-color="#22c55e" stop-opacity="0.30"/>
      <stop offset="1" stop-color="#22c55e" stop-opacity="0"/>
    </radialGradient>
    <linearGradient id="tag" x1="0" y1="0" x2="1" y2="1">
      <stop offset="0" stop-color="#22c55e"/>
      <stop offset="1" stop-color="#16a34a"/>
    </linearGradient>
  </defs>
  <rect width="1280" height="420" fill="url(#bg)"/>
  <circle cx="640" cy="165" r="260" fill="url(#glow)"/>
  <g opacity="0.16" stroke="#22c55e" stroke-width="2" fill="none">
    <path d="M120,180 L300,120 L480,180 L660,110 L840,180 L1020,120 L1160,170"/>
    <path d="M120,230 L300,180 L480,230 L660,170 L840,230 L1020,180 L1160,220"/>
    <circle cx="300" cy="120" r="6" fill="#22c55e" stroke="none"/>
    <circle cx="660" cy="110" r="6" fill="#22c55e" stroke="none"/>
    <circle cx="1020" cy="120" r="6" fill="#22c55e" stroke="none"/>
  </g>
  <g transform="translate(640,150)">
    <rect x="-95" y="-70" width="190" height="120" rx="18" fill="url(#tag)"/>
    <rect x="-95" y="-70" width="190" height="120" rx="18" fill="none" stroke="#bbf7d0" stroke-width="3" opacity="0.6"/>
    <text x="0" y="18" text-anchor="middle" font-family="Arial, Helvetica, sans-serif" font-size="72" font-weight="bold" fill="#ffffff">$</text>
    <circle cx="72" cy="-52" r="26" fill="#0b1220" opacity="0.85"/>
    <path d="M72,-62 L72,-42 M62,-52 L82,-52" stroke="#22c55e" stroke-width="5" stroke-linecap="round"/>
  </g>
  <text x="640" y="300" text-anchor="middle" font-family="Arial, Helvetica, sans-serif" font-size="58" font-weight="bold" fill="#ffffff" letter-spacing="1">Price Monitoring APIs</text>
  <text x="640" y="345" text-anchor="middle" font-family="Arial, Helvetica, sans-serif" font-size="23" fill="#86efac">262 actors · track prices · find deals · flip smarter — ready to run</text>
  <text x="640" y="392" text-anchor="middle" font-family="Arial, Helvetica, sans-serif" font-size="15" fill="#4d7c5f" letter-spacing="3">POWERED BY APIFY</text>
</svg>
